# xmcd CD database file
#
# Track frame offsets:
#	150
#	14292
#	32420
#	52128
#	71313
#	86689
#	101399
#	116628
#	131882
#	149468
#	165857
#	182702
#	197875
#	214495
#	233256
#	250015
#	267411
#	280707
#	295501
#
# Disc length: 4147 seconds
#
# Revision: 0
# Processed by: cddbd v1.4PL0 Copyright (c) Steve Scherf et al.
# Submitted via: CDex 1.50
#
DISCID=0c103113
DTITLE=Various Artist - Top Country Hits AUG 1997
DYEAR=1997
DGENRE=Country
TTITLE0=Michael Peterson_Drink Swear Steal and Lie
TTITLE1=Alan Jackson_There Goes
TTITLE2=John Michael Montgomery_How Was I To Know
TTITLE3=Trisha Yearwood_How Do I Live
TTITLE4=Neal McCoy_The Shake
TTITLE5=Kenny Chesney_She's Got It All
TTITLE6=Ricochet_He Left A Lot To Be Desired
TTITLE7=Tracy Lawrence_How A Cowgirl Says Goodbye
TTITLE8=Toby Kieth_We Were In Love
TTITLE9=Lee Ann Womack_The Fool
TTITLE10=Diamond Rio_How Your Love Makes Me Feel
TTITLE11=Tracy Byrd_Don't Love Make A Diamond Shine
TTITLE12=Collin Raye_What The Hearts Want
TTITLE13=Billy Ray Cyrus_It's All The Same To Me
TTITLE14=Clint Black_Still Holding On
TTITLE15=Alabama_Dancin' Shaggin' On The Boulevard
TTITLE16=Clay Walker_One Two I Love You
TTITLE17=David Kersh_Day In Day Out
TTITLE18=Vince Gill_You And You Alone
EXTD=YEAR: 1997
EXTT0=
EXTT1=
EXTT2=
EXTT3=
EXTT4=
EXTT5=
EXTT6=
EXTT7=
EXTT8=
EXTT9=
EXTT10=
EXTT11=
EXTT12=
EXTT13=
EXTT14=
EXTT15=
EXTT16=
EXTT17=
EXTT18=
PLAYORDER=
